<?xml version="1.0" standalone="no"?>
<!DOCTYPE svg PUBLIC "-//W3C//DTD SVG 20010904//EN"
 "http://www.w3.org/TR/2001/REC-SVG-20010904/DTD/svg10.dtd">
<svg version="1.0" xmlns="http://www.w3.org/2000/svg"
 width="100.000000pt" height="100.000000pt" viewBox="0 0 100.000000 100.000000"
 preserveAspectRatio="xMidYMid meet">

<g transform="translate(0.000000,100.000000) scale(0.100000,-0.100000)"
fill="#000000" stroke="none">
<path d="M20 920 c-19 -19 -20 -33 -20 -440 l0 -420 500 0 500 0 0 420 c0 407
-1 421 -20 440 -19 19 -33 20 -480 20 -447 0 -461 -1 -480 -20z m938 -62 l3
-38 -460 0 -461 0 0 33 c0 19 3 37 7 40 3 4 209 6 457 5 l451 -3 3 -37z m2
-418 l0 -340 -460 0 -460 0 0 340 0 340 460 0 460 0 0 -340z"/>
<path d="M546 648 c-101 -232 -168 -410 -157 -421 7 -7 14 -8 21 -1 17 17 190
448 185 461 -9 26 -27 12 -49 -39z"/>
<path d="M240 537 c-41 -23 -75 -49 -75 -57 0 -21 153 -106 167 -92 15 15 4
28 -52 59 -28 15 -50 30 -50 33 0 3 24 19 53 35 49 29 74 65 45 65 -7 0 -47
-19 -88 -43z"/>
<path d="M665 570 c-10 -16 2 -27 55 -56 28 -15 50 -30 50 -34 0 -3 -24 -19
-52 -36 -49 -28 -67 -53 -43 -61 17 -5 160 81 160 97 0 8 -34 34 -75 58 -81
45 -86 47 -95 32z"/>
</g>
</svg>
