<?xml version="1.0" standalone="no"?>
<!DOCTYPE svg PUBLIC "-//W3C//DTD SVG 20010904//EN"
 "http://www.w3.org/TR/2001/REC-SVG-20010904/DTD/svg10.dtd">
<svg version="1.0" xmlns="http://www.w3.org/2000/svg"
 width="100.000000pt" height="100.000000pt" viewBox="0 0 100.000000 100.000000"
 preserveAspectRatio="xMidYMid meet">

<g transform="translate(0.000000,100.000000) scale(0.100000,-0.100000)"
fill="#000000" stroke="none">
<path d="M165 921 c-48 -22 -69 -44 -90 -94 -22 -54 -22 -600 0 -654 21 -50
42 -72 90 -94 36 -17 70 -19 333 -19 241 0 299 3 329 15 50 21 72 42 94 90 17
36 19 70 19 335 0 265 -2 299 -19 335 -22 48 -44 69 -94 90 -30 12 -88 15
-329 15 -263 0 -297 -2 -333 -19z m663 -41 c18 -11 41 -34 52 -52 19 -31 20
-51 20 -328 0 -277 -1 -297 -20 -328 -11 -18 -34 -41 -52 -52 -31 -19 -51 -20
-328 -20 -277 0 -297 1 -328 20 -18 11 -41 34 -52 52 -19 31 -20 51 -20 328 0
277 1 297 20 328 11 18 34 41 52 52 31 19 51 20 328 20 277 0 297 -1 328 -20z"/>
<path d="M732 848 c-16 -16 -16 -100 0 -116 7 -7 33 -12 58 -12 58 0 70 12 70
70 0 58 -12 70 -70 70 -25 0 -51 -5 -58 -12z m88 -58 c0 -27 -3 -30 -30 -30
-27 0 -30 3 -30 30 0 27 3 30 30 30 27 0 30 -3 30 -30z"/>
<path d="M429 751 c-37 -12 -71 -31 -94 -52 -16 -14 -40 -19 -105 -21 l-85 -3
0 -232 0 -233 33 -32 32 -33 290 0 290 0 32 33 33 32 0 233 0 232 -85 3 c-65
2 -89 7 -105 21 -52 48 -170 74 -236 52z m187 -67 c68 -42 107 -117 102 -196
-12 -168 -191 -261 -334 -172 -68 42 -107 117 -102 196 12 168 191 261 334
172z m-358 -96 c-46 -121 8 -257 127 -321 53 -29 173 -30 225 -3 123 65 179
201 132 324 l-20 52 49 0 49 0 0 -205 c0 -205 0 -206 -25 -230 l-24 -25 -271
0 -271 0 -24 25 c-25 24 -25 25 -25 230 l0 205 49 0 49 0 -20 -52z"/>
<path d="M448 671 c-73 -24 -127 -96 -128 -171 0 -20 10 -56 23 -80 66 -132
248 -132 315 0 27 54 28 101 3 157 -34 73 -137 118 -213 94z m120 -51 c42 -26
72 -76 72 -120 0 -44 -30 -94 -72 -120 -117 -71 -259 71 -188 188 42 68 124
91 188 52z"/>
</g>
</svg>
