<?xml version="1.0" standalone="no"?>
<!DOCTYPE svg PUBLIC "-//W3C//DTD SVG 20010904//EN"
 "http://www.w3.org/TR/2001/REC-SVG-20010904/DTD/svg10.dtd">
<svg version="1.0" xmlns="http://www.w3.org/2000/svg"
 width="100.000000pt" height="100.000000pt" viewBox="0 0 100.000000 100.000000"
 preserveAspectRatio="xMidYMid meet">

<g transform="translate(0.000000,100.000000) scale(0.100000,-0.100000)"
fill="#000000" stroke="none">
<path d="M772 951 c-11 -7 -8 -41 19 -185 28 -152 35 -176 51 -176 23 0 23 -3
-7 187 -14 87 -25 164 -25 171 0 14 -19 16 -38 3z"/>
<path d="M558 849 c-15 -8 -6 -25 69 -137 122 -179 117 -173 136 -159 14 11 5
29 -78 157 -53 80 -99 146 -103 147 -4 1 -15 -2 -24 -8z"/>
<path d="M396 674 c-3 -9 -6 -19 -6 -24 0 -5 67 -49 150 -99 143 -86 150 -89
161 -70 6 12 9 22 7 23 -12 9 -300 186 -303 186 -2 0 -6 -7 -9 -16z"/>
<path d="M317 471 c-4 -17 14 -24 173 -64 170 -42 179 -43 183 -25 3 11 0 21
-6 23 -40 14 -318 85 -330 85 -8 0 -17 -9 -20 -19z"/>
<path d="M180 230 l0 -190 300 0 300 0 0 190 c0 183 -1 190 -20 190 -19 0 -20
-7 -20 -170 l0 -170 -260 0 -260 0 0 170 c0 163 -1 170 -20 170 -19 0 -20 -7
-20 -190z"/>
<path d="M300 311 c0 -16 14 -19 138 -30 75 -6 156 -14 180 -17 38 -6 42 -4
42 15 0 11 -3 21 -7 21 -5 0 -73 7 -153 15 -193 19 -200 19 -200 -4z"/>
<path d="M300 180 c0 -19 7 -20 180 -20 173 0 180 1 180 20 0 19 -7 20 -180
20 -173 0 -180 -1 -180 -20z"/>
</g>
</svg>
