<?xml version="1.0" standalone="no"?>
<!DOCTYPE svg PUBLIC "-//W3C//DTD SVG 20010904//EN"
 "http://www.w3.org/TR/2001/REC-SVG-20010904/DTD/svg10.dtd">
<svg version="1.0" xmlns="http://www.w3.org/2000/svg"
 width="100.000000pt" height="100.000000pt" viewBox="0 0 100.000000 100.000000"
 preserveAspectRatio="xMidYMid meet">

<g transform="translate(0.000000,100.000000) scale(0.100000,-0.100000)"
fill="#000000" stroke="none">
<path d="M49 831 l-29 -29 0 -302 0 -302 29 -29 29 -29 422 0 422 0 29 29 29
29 0 302 0 302 -29 29 -29 29 -422 0 -422 0 -29 -29z m264 -165 c92 -64 173
-119 180 -122 7 -2 103 58 212 135 199 139 200 140 220 120 15 -15 17 -23 9
-37 -6 -9 -105 -84 -219 -165 -179 -128 -211 -147 -229 -139 -39 19 -409 287
-420 304 -8 13 -6 22 8 37 18 20 19 20 45 2 14 -10 101 -71 194 -135z m511
146 c-24 -22 -316 -222 -323 -222 -8 0 -303 201 -325 221 -6 5 138 9 324 9
184 0 330 -4 324 -8z m-729 -128 l25 -16 0 -244 c0 -205 -2 -244 -14 -244 -8
0 -22 7 -30 16 -14 13 -16 51 -16 260 0 134 2 244 5 244 3 0 17 -7 30 -16z
m845 -228 c0 -209 -2 -247 -16 -260 -8 -9 -22 -16 -30 -16 -12 0 -14 39 -14
241 0 237 0 241 23 260 12 10 25 18 30 19 4 0 7 -110 7 -244z m-609 59 c90
-63 166 -115 169 -115 4 0 80 52 169 115 89 63 164 115 167 115 2 0 4 -101 4
-225 l0 -225 -340 0 -340 0 0 225 c0 124 2 225 4 225 3 0 78 -52 167 -115z"/>
</g>
</svg>
